<mxfile host="app.diagrams.net" modified="2023-10-26T02:46:03.684Z" agent="Mozilla/5.0 (Windows NT 10.0; Win64; x64) AppleWebKit/537.36 (KHTML, like Gecko) Chrome/116.0.0.0 Safari/537.36 OPR/102.0.0.0" version="22.0.8" etag="Uf7epnoz4s-FHfSUpVxv" type="github">
  <diagram name="Page-1" id="Tb81CREaaDEDj-NtLf-2">
    <mxGraphModel>
      <root>
        <mxCell id="0" />
        <mxCell id="1" parent="0" />
      </root>
    </mxGraphModel>
  </diagram>
</mxfile>
